<mxfile host="app.diagrams.net" agent="Mozilla/5.0 (Windows NT 10.0; Win64; x64) AppleWebKit/537.36 (KHTML, like Gecko) Chrome/133.0.0.0 Safari/537.36" version="26.0.16">
  <diagram name="Page-1" id="uTEuRz0q_boYyujMPSvN">
    <mxGraphModel grid="1" page="1" gridSize="10" guides="1" tooltips="1" connect="1" arrows="1" fold="1" pageScale="1" pageWidth="827" pageHeight="1169" math="0" shadow="0">
      <root>
        <mxCell id="0" />
        <mxCell id="1" parent="0" />
        <mxCell id="eoRcMHZ9vkLLQFMJHu0_-1" value="Ecole Network" style="shape=rect;html=1;verticalAlign=top;fontStyle=1;whiteSpace=wrap;align=center;perimeterSpacing=1;fillColor=#dae8fc;fillStyle=auto;strokeColor=#6c8ebf;" vertex="1" parent="1">
          <mxGeometry x="122" width="660" height="1160" as="geometry" />
        </mxCell>
        <mxCell id="4oAhVJ8UpYu7YmOD0aNs-45" style="rounded=0;orthogonalLoop=1;jettySize=auto;html=1;entryX=0;entryY=0.5;entryDx=0;entryDy=0;endArrow=none;startFill=0;" edge="1" parent="1" source="eoRcMHZ9vkLLQFMJHu0_-2" target="4oAhVJ8UpYu7YmOD0aNs-23">
          <mxGeometry relative="1" as="geometry" />
        </mxCell>
        <mxCell id="4oAhVJ8UpYu7YmOD0aNs-46" style="rounded=0;orthogonalLoop=1;jettySize=auto;html=1;entryX=0;entryY=0.5;entryDx=0;entryDy=0;endArrow=none;startFill=0;" edge="1" parent="1" source="eoRcMHZ9vkLLQFMJHu0_-2" target="4oAhVJ8UpYu7YmOD0aNs-3">
          <mxGeometry relative="1" as="geometry" />
        </mxCell>
        <mxCell id="4oAhVJ8UpYu7YmOD0aNs-47" style="rounded=0;orthogonalLoop=1;jettySize=auto;html=1;entryX=0;entryY=0.5;entryDx=0;entryDy=0;endArrow=none;startFill=0;" edge="1" parent="1" source="eoRcMHZ9vkLLQFMJHu0_-2" target="4oAhVJ8UpYu7YmOD0aNs-4">
          <mxGeometry relative="1" as="geometry" />
        </mxCell>
        <mxCell id="4oAhVJ8UpYu7YmOD0aNs-48" style="rounded=0;orthogonalLoop=1;jettySize=auto;html=1;entryX=0;entryY=0.5;entryDx=0;entryDy=0;endArrow=none;startFill=0;" edge="1" parent="1" source="eoRcMHZ9vkLLQFMJHu0_-2" target="4oAhVJ8UpYu7YmOD0aNs-5">
          <mxGeometry relative="1" as="geometry" />
        </mxCell>
        <mxCell id="4oAhVJ8UpYu7YmOD0aNs-49" style="rounded=0;orthogonalLoop=1;jettySize=auto;html=1;entryX=0;entryY=0.5;entryDx=0;entryDy=0;endArrow=none;startFill=0;" edge="1" parent="1" source="eoRcMHZ9vkLLQFMJHu0_-2" target="4oAhVJ8UpYu7YmOD0aNs-6">
          <mxGeometry relative="1" as="geometry" />
        </mxCell>
        <mxCell id="4oAhVJ8UpYu7YmOD0aNs-91" style="rounded=0;orthogonalLoop=1;jettySize=auto;html=1;entryX=0;entryY=0.5;entryDx=0;entryDy=0;endArrow=none;startFill=0;" edge="1" parent="1" source="eoRcMHZ9vkLLQFMJHu0_-2" target="4oAhVJ8UpYu7YmOD0aNs-90">
          <mxGeometry relative="1" as="geometry" />
        </mxCell>
        <mxCell id="eoRcMHZ9vkLLQFMJHu0_-2" value="Admin" style="shape=umlActor;html=1;verticalLabelPosition=bottom;verticalAlign=top;align=center;" vertex="1" parent="1">
          <mxGeometry x="50" y="119" width="30" height="60" as="geometry" />
        </mxCell>
        <mxCell id="4oAhVJ8UpYu7YmOD0aNs-62" style="rounded=0;orthogonalLoop=1;jettySize=auto;html=1;endArrow=none;startFill=0;entryX=0;entryY=0.5;entryDx=0;entryDy=0;" edge="1" parent="1" source="eoRcMHZ9vkLLQFMJHu0_-3" target="4oAhVJ8UpYu7YmOD0aNs-54">
          <mxGeometry relative="1" as="geometry" />
        </mxCell>
        <mxCell id="4oAhVJ8UpYu7YmOD0aNs-63" style="rounded=0;orthogonalLoop=1;jettySize=auto;html=1;entryX=0;entryY=0.5;entryDx=0;entryDy=0;endArrow=none;startFill=0;" edge="1" parent="1" source="eoRcMHZ9vkLLQFMJHu0_-3" target="4oAhVJ8UpYu7YmOD0aNs-55">
          <mxGeometry relative="1" as="geometry" />
        </mxCell>
        <mxCell id="4oAhVJ8UpYu7YmOD0aNs-64" style="rounded=0;orthogonalLoop=1;jettySize=auto;html=1;entryX=0;entryY=0.5;entryDx=0;entryDy=0;endArrow=none;startFill=0;" edge="1" parent="1" source="eoRcMHZ9vkLLQFMJHu0_-3" target="4oAhVJ8UpYu7YmOD0aNs-56">
          <mxGeometry relative="1" as="geometry" />
        </mxCell>
        <mxCell id="4oAhVJ8UpYu7YmOD0aNs-65" style="rounded=0;orthogonalLoop=1;jettySize=auto;html=1;entryX=0;entryY=0.5;entryDx=0;entryDy=0;endArrow=none;startFill=0;" edge="1" parent="1" source="eoRcMHZ9vkLLQFMJHu0_-3" target="4oAhVJ8UpYu7YmOD0aNs-57">
          <mxGeometry relative="1" as="geometry" />
        </mxCell>
        <mxCell id="4oAhVJ8UpYu7YmOD0aNs-66" style="rounded=0;orthogonalLoop=1;jettySize=auto;html=1;entryX=0;entryY=0.5;entryDx=0;entryDy=0;endArrow=none;startFill=0;" edge="1" parent="1" source="eoRcMHZ9vkLLQFMJHu0_-3" target="4oAhVJ8UpYu7YmOD0aNs-58">
          <mxGeometry relative="1" as="geometry" />
        </mxCell>
        <mxCell id="eoRcMHZ9vkLLQFMJHu0_-3" value="Professeur" style="shape=umlActor;html=1;verticalLabelPosition=bottom;verticalAlign=top;align=center;" vertex="1" parent="1">
          <mxGeometry x="50" y="659" width="30" height="60" as="geometry" />
        </mxCell>
        <mxCell id="4oAhVJ8UpYu7YmOD0aNs-98" style="rounded=0;orthogonalLoop=1;jettySize=auto;html=1;endArrow=none;startFill=0;entryX=0;entryY=0.5;entryDx=0;entryDy=0;" edge="1" parent="1" source="eoRcMHZ9vkLLQFMJHu0_-5" target="4oAhVJ8UpYu7YmOD0aNs-59">
          <mxGeometry relative="1" as="geometry" />
        </mxCell>
        <mxCell id="eoRcMHZ9vkLLQFMJHu0_-5" value="Parent" style="shape=umlActor;html=1;verticalLabelPosition=bottom;verticalAlign=top;align=center;" vertex="1" parent="1">
          <mxGeometry x="30" y="1080" width="30" height="60" as="geometry" />
        </mxCell>
        <mxCell id="4oAhVJ8UpYu7YmOD0aNs-44" style="rounded=0;orthogonalLoop=1;jettySize=auto;html=1;entryX=0;entryY=0.5;entryDx=0;entryDy=0;endArrow=none;startFill=0;" edge="1" parent="1" source="eoRcMHZ9vkLLQFMJHu0_-6" target="4oAhVJ8UpYu7YmOD0aNs-36">
          <mxGeometry relative="1" as="geometry" />
        </mxCell>
        <mxCell id="4oAhVJ8UpYu7YmOD0aNs-52" style="rounded=0;orthogonalLoop=1;jettySize=auto;html=1;endArrow=none;startFill=0;entryX=0;entryY=0.5;entryDx=0;entryDy=0;" edge="1" parent="1" source="eoRcMHZ9vkLLQFMJHu0_-6" target="4oAhVJ8UpYu7YmOD0aNs-33">
          <mxGeometry relative="1" as="geometry" />
        </mxCell>
        <mxCell id="4oAhVJ8UpYu7YmOD0aNs-53" style="rounded=0;orthogonalLoop=1;jettySize=auto;html=1;entryX=0;entryY=0.5;entryDx=0;entryDy=0;endArrow=none;startFill=0;" edge="1" parent="1" source="eoRcMHZ9vkLLQFMJHu0_-6" target="4oAhVJ8UpYu7YmOD0aNs-34">
          <mxGeometry relative="1" as="geometry" />
        </mxCell>
        <mxCell id="eoRcMHZ9vkLLQFMJHu0_-6" value="Secretaire" style="shape=umlActor;html=1;verticalLabelPosition=bottom;verticalAlign=top;align=center;" vertex="1" parent="1">
          <mxGeometry x="50" y="425" width="30" height="60" as="geometry" />
        </mxCell>
        <mxCell id="X4F_bT6jQ7sZTaJw84J--1" value="Ajouter un personnel" style="ellipse;whiteSpace=wrap;html=1;strokeWidth=1;perimeterSpacing=1;" vertex="1" parent="1">
          <mxGeometry x="310" y="19" width="120" height="40" as="geometry" />
        </mxCell>
        <mxCell id="4oAhVJ8UpYu7YmOD0aNs-1" value="Suspender un personnel" style="ellipse;whiteSpace=wrap;html=1;" vertex="1" parent="1">
          <mxGeometry x="160" y="114" width="120" height="40" as="geometry" />
        </mxCell>
        <mxCell id="4oAhVJ8UpYu7YmOD0aNs-2" value="Supprimer un personnel" style="ellipse;whiteSpace=wrap;html=1;" vertex="1" parent="1">
          <mxGeometry x="320" y="89" width="120" height="40" as="geometry" />
        </mxCell>
        <mxCell id="4oAhVJ8UpYu7YmOD0aNs-3" value="Assigner les classes au professeurs" style="ellipse;whiteSpace=wrap;html=1;" vertex="1" parent="1">
          <mxGeometry x="260" y="159" width="120" height="40" as="geometry" />
        </mxCell>
        <mxCell id="4oAhVJ8UpYu7YmOD0aNs-4" value="Assigner la garder au professeurs" style="ellipse;whiteSpace=wrap;html=1;" vertex="1" parent="1">
          <mxGeometry x="250" y="199" width="120" height="40" as="geometry" />
        </mxCell>
        <mxCell id="4oAhVJ8UpYu7YmOD0aNs-106" style="edgeStyle=orthogonalEdgeStyle;rounded=0;orthogonalLoop=1;jettySize=auto;html=1;entryX=0.5;entryY=0;entryDx=0;entryDy=0;dashed=1;endArrow=open;endFill=0;curved=1;" edge="1" parent="1" source="4oAhVJ8UpYu7YmOD0aNs-5" target="4oAhVJ8UpYu7YmOD0aNs-100">
          <mxGeometry relative="1" as="geometry" />
        </mxCell>
        <mxCell id="4oAhVJ8UpYu7YmOD0aNs-107" value="&amp;lt;&amp;lt;include&amp;gt;&amp;gt;" style="edgeLabel;html=1;align=center;verticalAlign=middle;resizable=0;points=[];" connectable="0" vertex="1" parent="4oAhVJ8UpYu7YmOD0aNs-106">
          <mxGeometry x="-0.3886" y="4" relative="1" as="geometry">
            <mxPoint x="-201" y="4" as="offset" />
          </mxGeometry>
        </mxCell>
        <mxCell id="4oAhVJ8UpYu7YmOD0aNs-5" value="Filtrer les élèves et les personnel" style="ellipse;whiteSpace=wrap;html=1;" vertex="1" parent="1">
          <mxGeometry x="300" y="249" width="120" height="40" as="geometry" />
        </mxCell>
        <mxCell id="4oAhVJ8UpYu7YmOD0aNs-108" style="edgeStyle=orthogonalEdgeStyle;rounded=0;orthogonalLoop=1;jettySize=auto;html=1;dashed=1;endArrow=open;endFill=0;curved=1;exitX=1;exitY=0.5;exitDx=0;exitDy=0;" edge="1" parent="1" source="4oAhVJ8UpYu7YmOD0aNs-6" target="4oAhVJ8UpYu7YmOD0aNs-100">
          <mxGeometry relative="1" as="geometry">
            <Array as="points">
              <mxPoint x="280" y="320" />
              <mxPoint x="710" y="320" />
            </Array>
          </mxGeometry>
        </mxCell>
        <mxCell id="4oAhVJ8UpYu7YmOD0aNs-109" value="&amp;lt;&amp;lt;include&amp;gt;&amp;gt;" style="edgeLabel;html=1;align=center;verticalAlign=middle;resizable=0;points=[];" connectable="0" vertex="1" parent="4oAhVJ8UpYu7YmOD0aNs-108">
          <mxGeometry x="-0.284" y="1" relative="1" as="geometry">
            <mxPoint x="-78" y="1" as="offset" />
          </mxGeometry>
        </mxCell>
        <mxCell id="4oAhVJ8UpYu7YmOD0aNs-6" value="Afficher les statistique" style="ellipse;whiteSpace=wrap;html=1;" vertex="1" parent="1">
          <mxGeometry x="160" y="259" width="120" height="40" as="geometry" />
        </mxCell>
        <mxCell id="4oAhVJ8UpYu7YmOD0aNs-23" value="Gérer les personnels" style="ellipse;whiteSpace=wrap;html=1;" vertex="1" parent="1">
          <mxGeometry x="170" y="44" width="120" height="40" as="geometry" />
        </mxCell>
        <mxCell id="4oAhVJ8UpYu7YmOD0aNs-30" value="&lt;span&gt;&amp;lt;&amp;lt;extend&amp;gt;&amp;gt;&lt;/span&gt;" style="html=1;verticalAlign=bottom;endArrow=open;dashed=1;endSize=8;curved=0;rounded=0;entryX=0.5;entryY=0;entryDx=0;entryDy=0;exitX=0;exitY=0.5;exitDx=0;exitDy=0;" edge="1" parent="1" source="X4F_bT6jQ7sZTaJw84J--1" target="4oAhVJ8UpYu7YmOD0aNs-23">
          <mxGeometry x="0.1919" y="-5" relative="1" as="geometry">
            <mxPoint x="388.99999999999955" y="64" as="sourcePoint" />
            <mxPoint x="290" y="64" as="targetPoint" />
            <mxPoint as="offset" />
          </mxGeometry>
        </mxCell>
        <mxCell id="4oAhVJ8UpYu7YmOD0aNs-31" value="&lt;span&gt;&amp;lt;&amp;lt;extend&amp;gt;&amp;gt;&lt;/span&gt;" style="html=1;verticalAlign=bottom;endArrow=open;dashed=1;endSize=8;curved=0;rounded=0;entryX=0.5;entryY=1;entryDx=0;entryDy=0;exitX=0.5;exitY=0;exitDx=0;exitDy=0;" edge="1" parent="1" source="4oAhVJ8UpYu7YmOD0aNs-1" target="4oAhVJ8UpYu7YmOD0aNs-23">
          <mxGeometry x="-0.563" y="2" relative="1" as="geometry">
            <mxPoint x="398.99999999999955" y="74" as="sourcePoint" />
            <mxPoint x="300" y="74" as="targetPoint" />
            <mxPoint as="offset" />
          </mxGeometry>
        </mxCell>
        <mxCell id="4oAhVJ8UpYu7YmOD0aNs-32" value="&lt;span&gt;&amp;lt;&amp;lt;extend&amp;gt;&amp;gt;&lt;/span&gt;" style="html=1;verticalAlign=bottom;endArrow=open;dashed=1;endSize=8;curved=0;rounded=0;entryX=1;entryY=1;entryDx=0;entryDy=0;exitX=0;exitY=0.5;exitDx=0;exitDy=0;" edge="1" parent="1" source="4oAhVJ8UpYu7YmOD0aNs-2" target="4oAhVJ8UpYu7YmOD0aNs-23">
          <mxGeometry x="-0.1123" y="16" relative="1" as="geometry">
            <mxPoint x="370" y="125" as="sourcePoint" />
            <mxPoint x="282" y="88" as="targetPoint" />
            <mxPoint as="offset" />
          </mxGeometry>
        </mxCell>
        <mxCell id="4oAhVJ8UpYu7YmOD0aNs-134" style="edgeStyle=orthogonalEdgeStyle;rounded=0;orthogonalLoop=1;jettySize=auto;html=1;entryX=0.5;entryY=0;entryDx=0;entryDy=0;dashed=1;endArrow=open;endFill=0;curved=1;exitX=1;exitY=0.5;exitDx=0;exitDy=0;" edge="1" parent="1" source="4oAhVJ8UpYu7YmOD0aNs-33" target="4oAhVJ8UpYu7YmOD0aNs-100">
          <mxGeometry relative="1" as="geometry">
            <Array as="points">
              <mxPoint x="280" y="430" />
              <mxPoint x="710" y="430" />
            </Array>
          </mxGeometry>
        </mxCell>
        <mxCell id="4oAhVJ8UpYu7YmOD0aNs-137" value="&amp;lt;&amp;lt;include&amp;gt;&amp;gt;" style="edgeLabel;html=1;align=center;verticalAlign=middle;resizable=0;points=[];" connectable="0" vertex="1" parent="4oAhVJ8UpYu7YmOD0aNs-134">
          <mxGeometry x="-0.3279" relative="1" as="geometry">
            <mxPoint x="-84" as="offset" />
          </mxGeometry>
        </mxCell>
        <mxCell id="4oAhVJ8UpYu7YmOD0aNs-33" value="Scanner les document" style="ellipse;whiteSpace=wrap;html=1;" vertex="1" parent="1">
          <mxGeometry x="160" y="359" width="120" height="40" as="geometry" />
        </mxCell>
        <mxCell id="4oAhVJ8UpYu7YmOD0aNs-138" style="edgeStyle=orthogonalEdgeStyle;rounded=0;orthogonalLoop=1;jettySize=auto;html=1;entryX=0.5;entryY=0;entryDx=0;entryDy=0;dashed=1;endArrow=open;endFill=0;curved=1;exitX=1;exitY=0.5;exitDx=0;exitDy=0;" edge="1" parent="1" source="4oAhVJ8UpYu7YmOD0aNs-34" target="4oAhVJ8UpYu7YmOD0aNs-100">
          <mxGeometry relative="1" as="geometry">
            <Array as="points">
              <mxPoint x="290" y="460" />
              <mxPoint x="290" y="540" />
              <mxPoint x="710" y="540" />
            </Array>
          </mxGeometry>
        </mxCell>
        <mxCell id="4oAhVJ8UpYu7YmOD0aNs-139" value="&amp;lt;&amp;lt;include&amp;gt;&amp;gt;" style="edgeLabel;html=1;align=center;verticalAlign=middle;resizable=0;points=[];" connectable="0" vertex="1" parent="4oAhVJ8UpYu7YmOD0aNs-138">
          <mxGeometry x="-0.2443" relative="1" as="geometry">
            <mxPoint as="offset" />
          </mxGeometry>
        </mxCell>
        <mxCell id="4oAhVJ8UpYu7YmOD0aNs-34" value="Imprimer les attestations" style="ellipse;whiteSpace=wrap;html=1;" vertex="1" parent="1">
          <mxGeometry x="140" y="409" width="120" height="40" as="geometry" />
        </mxCell>
        <mxCell id="4oAhVJ8UpYu7YmOD0aNs-35" value="Filtrer les personnel" style="ellipse;whiteSpace=wrap;html=1;" vertex="1" parent="1">
          <mxGeometry x="370" y="466" width="120" height="40" as="geometry" />
        </mxCell>
        <mxCell id="4oAhVJ8UpYu7YmOD0aNs-133" style="edgeStyle=orthogonalEdgeStyle;rounded=0;orthogonalLoop=1;jettySize=auto;html=1;entryX=0.5;entryY=0;entryDx=0;entryDy=0;dashed=1;endArrow=open;endFill=0;curved=1;exitX=1.014;exitY=0.629;exitDx=0;exitDy=0;exitPerimeter=0;" edge="1" parent="1" source="4oAhVJ8UpYu7YmOD0aNs-36" target="4oAhVJ8UpYu7YmOD0aNs-100">
          <mxGeometry relative="1" as="geometry">
            <Array as="points">
              <mxPoint x="252" y="560" />
              <mxPoint x="710" y="560" />
            </Array>
          </mxGeometry>
        </mxCell>
        <mxCell id="4oAhVJ8UpYu7YmOD0aNs-136" value="&amp;lt;&amp;lt;include&amp;gt;&amp;gt;" style="edgeLabel;html=1;align=center;verticalAlign=middle;resizable=0;points=[];" connectable="0" vertex="1" parent="4oAhVJ8UpYu7YmOD0aNs-133">
          <mxGeometry x="-0.0743" y="-2" relative="1" as="geometry">
            <mxPoint x="-172" y="-1" as="offset" />
          </mxGeometry>
        </mxCell>
        <mxCell id="4oAhVJ8UpYu7YmOD0aNs-141" style="rounded=0;orthogonalLoop=1;jettySize=auto;html=1;entryX=0;entryY=0.5;entryDx=0;entryDy=0;dashed=1;endArrow=open;endFill=0;" edge="1" parent="1" source="4oAhVJ8UpYu7YmOD0aNs-36" target="4oAhVJ8UpYu7YmOD0aNs-140">
          <mxGeometry relative="1" as="geometry" />
        </mxCell>
        <mxCell id="4oAhVJ8UpYu7YmOD0aNs-142" value="&amp;lt;&amp;lt;include&amp;gt;&amp;gt;" style="edgeLabel;html=1;align=center;verticalAlign=middle;resizable=0;points=[];" connectable="0" vertex="1" parent="4oAhVJ8UpYu7YmOD0aNs-141">
          <mxGeometry x="-0.0327" y="-1" relative="1" as="geometry">
            <mxPoint as="offset" />
          </mxGeometry>
        </mxCell>
        <mxCell id="4oAhVJ8UpYu7YmOD0aNs-36" value="Imprimer les bulletins" style="ellipse;whiteSpace=wrap;html=1;" vertex="1" parent="1">
          <mxGeometry x="130" y="459" width="120" height="40" as="geometry" />
        </mxCell>
        <mxCell id="4oAhVJ8UpYu7YmOD0aNs-41" value="&lt;span&gt;&amp;lt;&amp;lt;include&amp;gt;&amp;gt;&lt;/span&gt;" style="html=1;verticalAlign=bottom;endArrow=open;dashed=1;endSize=8;curved=0;rounded=0;entryX=0;entryY=0.5;entryDx=0;entryDy=0;exitX=1;exitY=0.5;exitDx=0;exitDy=0;" edge="1" parent="1" source="4oAhVJ8UpYu7YmOD0aNs-34" target="4oAhVJ8UpYu7YmOD0aNs-35">
          <mxGeometry x="0.0902" relative="1" as="geometry">
            <mxPoint x="580" y="375" as="sourcePoint" />
            <mxPoint x="370.0000000000002" y="455" as="targetPoint" />
            <mxPoint as="offset" />
          </mxGeometry>
        </mxCell>
        <mxCell id="4oAhVJ8UpYu7YmOD0aNs-132" style="edgeStyle=orthogonalEdgeStyle;rounded=0;orthogonalLoop=1;jettySize=auto;html=1;entryX=0.5;entryY=0;entryDx=0;entryDy=0;dashed=1;endArrow=open;endFill=0;curved=1;" edge="1" parent="1" source="4oAhVJ8UpYu7YmOD0aNs-54" target="4oAhVJ8UpYu7YmOD0aNs-100">
          <mxGeometry relative="1" as="geometry" />
        </mxCell>
        <mxCell id="4oAhVJ8UpYu7YmOD0aNs-135" value="&amp;lt;&amp;lt;include&amp;gt;&amp;gt;" style="edgeLabel;html=1;align=center;verticalAlign=middle;resizable=0;points=[];" connectable="0" vertex="1" parent="4oAhVJ8UpYu7YmOD0aNs-132">
          <mxGeometry x="-0.0975" y="-2" relative="1" as="geometry">
            <mxPoint x="-22" y="8" as="offset" />
          </mxGeometry>
        </mxCell>
        <mxCell id="4oAhVJ8UpYu7YmOD0aNs-54" value="Noter l&#39;absence ou retard" style="ellipse;whiteSpace=wrap;html=1;" vertex="1" parent="1">
          <mxGeometry x="170" y="599" width="120" height="40" as="geometry" />
        </mxCell>
        <mxCell id="4oAhVJ8UpYu7YmOD0aNs-130" style="edgeStyle=orthogonalEdgeStyle;rounded=0;orthogonalLoop=1;jettySize=auto;html=1;entryX=0.5;entryY=0;entryDx=0;entryDy=0;dashed=1;endArrow=open;endFill=0;curved=1;" edge="1" parent="1" source="4oAhVJ8UpYu7YmOD0aNs-55" target="4oAhVJ8UpYu7YmOD0aNs-100">
          <mxGeometry relative="1" as="geometry" />
        </mxCell>
        <mxCell id="4oAhVJ8UpYu7YmOD0aNs-131" value="&amp;lt;&amp;lt;include&amp;gt;&amp;gt;" style="edgeLabel;html=1;align=center;verticalAlign=middle;resizable=0;points=[];" connectable="0" vertex="1" parent="4oAhVJ8UpYu7YmOD0aNs-130">
          <mxGeometry x="0.1223" y="1" relative="1" as="geometry">
            <mxPoint x="-15" y="15" as="offset" />
          </mxGeometry>
        </mxCell>
        <mxCell id="4oAhVJ8UpYu7YmOD0aNs-55" value="Noter les activités de classe" style="ellipse;whiteSpace=wrap;html=1;" vertex="1" parent="1">
          <mxGeometry x="294" y="639" width="120" height="40" as="geometry" />
        </mxCell>
        <mxCell id="4oAhVJ8UpYu7YmOD0aNs-128" style="edgeStyle=orthogonalEdgeStyle;rounded=0;orthogonalLoop=1;jettySize=auto;html=1;dashed=1;endArrow=open;endFill=0;entryX=0.5;entryY=0;entryDx=0;entryDy=0;curved=1;" edge="1" parent="1" source="4oAhVJ8UpYu7YmOD0aNs-56" target="4oAhVJ8UpYu7YmOD0aNs-100">
          <mxGeometry relative="1" as="geometry">
            <mxPoint x="710" y="770" as="targetPoint" />
          </mxGeometry>
        </mxCell>
        <mxCell id="4oAhVJ8UpYu7YmOD0aNs-129" value="&amp;lt;&amp;lt;include&amp;gt;&amp;gt;" style="edgeLabel;html=1;align=center;verticalAlign=middle;resizable=0;points=[];" connectable="0" vertex="1" parent="4oAhVJ8UpYu7YmOD0aNs-128">
          <mxGeometry x="-0.4152" y="-4" relative="1" as="geometry">
            <mxPoint as="offset" />
          </mxGeometry>
        </mxCell>
        <mxCell id="4oAhVJ8UpYu7YmOD0aNs-56" value="Saisir les notes" style="ellipse;whiteSpace=wrap;html=1;" vertex="1" parent="1">
          <mxGeometry x="170" y="679" width="120" height="40" as="geometry" />
        </mxCell>
        <mxCell id="4oAhVJ8UpYu7YmOD0aNs-126" style="rounded=0;orthogonalLoop=1;jettySize=auto;html=1;entryX=0;entryY=0.5;entryDx=0;entryDy=0;dashed=1;endArrow=open;endFill=0;" edge="1" parent="1" source="4oAhVJ8UpYu7YmOD0aNs-57" target="4oAhVJ8UpYu7YmOD0aNs-100">
          <mxGeometry relative="1" as="geometry" />
        </mxCell>
        <mxCell id="4oAhVJ8UpYu7YmOD0aNs-127" value="&amp;lt;&amp;lt;include&amp;gt;&amp;gt;" style="edgeLabel;html=1;align=center;verticalAlign=middle;resizable=0;points=[];" connectable="0" vertex="1" parent="4oAhVJ8UpYu7YmOD0aNs-126">
          <mxGeometry x="0.1201" relative="1" as="geometry">
            <mxPoint x="20" y="-10" as="offset" />
          </mxGeometry>
        </mxCell>
        <mxCell id="4oAhVJ8UpYu7YmOD0aNs-57" value="Assigner les traveaux à domicile" style="ellipse;whiteSpace=wrap;html=1;" vertex="1" parent="1">
          <mxGeometry x="290" y="719" width="120" height="40" as="geometry" />
        </mxCell>
        <mxCell id="4oAhVJ8UpYu7YmOD0aNs-124" style="edgeStyle=orthogonalEdgeStyle;rounded=0;orthogonalLoop=1;jettySize=auto;html=1;entryX=0.5;entryY=1;entryDx=0;entryDy=0;dashed=1;endArrow=open;endFill=0;curved=1;exitX=1;exitY=0.5;exitDx=0;exitDy=0;" edge="1" parent="1" source="4oAhVJ8UpYu7YmOD0aNs-58" target="4oAhVJ8UpYu7YmOD0aNs-100">
          <mxGeometry relative="1" as="geometry">
            <Array as="points">
              <mxPoint x="340" y="769" />
              <mxPoint x="340" y="800" />
              <mxPoint x="465" y="800" />
              <mxPoint x="465" y="826" />
              <mxPoint x="710" y="826" />
            </Array>
          </mxGeometry>
        </mxCell>
        <mxCell id="4oAhVJ8UpYu7YmOD0aNs-125" value="&amp;lt;&amp;lt;include&amp;gt;&amp;gt;" style="edgeLabel;html=1;align=center;verticalAlign=middle;resizable=0;points=[];" connectable="0" vertex="1" parent="4oAhVJ8UpYu7YmOD0aNs-124">
          <mxGeometry x="-0.2809" y="4" relative="1" as="geometry">
            <mxPoint x="-43" y="15" as="offset" />
          </mxGeometry>
        </mxCell>
        <mxCell id="4oAhVJ8UpYu7YmOD0aNs-58" value="Consulter les documents pédagogie" style="ellipse;whiteSpace=wrap;html=1;" vertex="1" parent="1">
          <mxGeometry x="160" y="749" width="120" height="40" as="geometry" />
        </mxCell>
        <mxCell id="4oAhVJ8UpYu7YmOD0aNs-59" value="Demander d&#39;inscrire un enfant" style="ellipse;whiteSpace=wrap;html=1;" vertex="1" parent="1">
          <mxGeometry x="414" y="1110" width="120" height="40" as="geometry" />
        </mxCell>
        <mxCell id="4oAhVJ8UpYu7YmOD0aNs-72" style="rounded=0;orthogonalLoop=1;jettySize=auto;html=1;entryX=0;entryY=0.5;entryDx=0;entryDy=0;endArrow=none;startFill=0;strokeColor=default;" edge="1" parent="1" source="4oAhVJ8UpYu7YmOD0aNs-67" target="4oAhVJ8UpYu7YmOD0aNs-68">
          <mxGeometry relative="1" as="geometry" />
        </mxCell>
        <mxCell id="4oAhVJ8UpYu7YmOD0aNs-73" style="rounded=0;orthogonalLoop=1;jettySize=auto;html=1;endArrow=none;startFill=0;strokeColor=default;entryX=0;entryY=0.5;entryDx=0;entryDy=0;" edge="1" parent="1" source="4oAhVJ8UpYu7YmOD0aNs-67" target="4oAhVJ8UpYu7YmOD0aNs-71">
          <mxGeometry relative="1" as="geometry" />
        </mxCell>
        <mxCell id="4oAhVJ8UpYu7YmOD0aNs-67" value="Comptable" style="shape=umlActor;html=1;verticalLabelPosition=bottom;verticalAlign=top;align=center;" vertex="1" parent="1">
          <mxGeometry x="40" y="819" width="30" height="60" as="geometry" />
        </mxCell>
        <mxCell id="4oAhVJ8UpYu7YmOD0aNs-120" style="edgeStyle=orthogonalEdgeStyle;rounded=0;orthogonalLoop=1;jettySize=auto;html=1;entryX=0.5;entryY=1;entryDx=0;entryDy=0;dashed=1;endArrow=open;endFill=0;curved=1;" edge="1" parent="1" source="4oAhVJ8UpYu7YmOD0aNs-68" target="4oAhVJ8UpYu7YmOD0aNs-100">
          <mxGeometry relative="1" as="geometry" />
        </mxCell>
        <mxCell id="4oAhVJ8UpYu7YmOD0aNs-121" value="&amp;lt;&amp;lt;include&amp;gt;&amp;gt;" style="edgeLabel;html=1;align=center;verticalAlign=middle;resizable=0;points=[];" connectable="0" vertex="1" parent="4oAhVJ8UpYu7YmOD0aNs-120">
          <mxGeometry x="0.0272" y="3" relative="1" as="geometry">
            <mxPoint x="-15" y="-7" as="offset" />
          </mxGeometry>
        </mxCell>
        <mxCell id="4oAhVJ8UpYu7YmOD0aNs-68" value="Saisir les opérations quotidiennes" style="ellipse;whiteSpace=wrap;html=1;" vertex="1" parent="1">
          <mxGeometry x="160" y="869" width="120" height="40" as="geometry" />
        </mxCell>
        <mxCell id="4oAhVJ8UpYu7YmOD0aNs-122" style="edgeStyle=orthogonalEdgeStyle;rounded=0;orthogonalLoop=1;jettySize=auto;html=1;entryX=0.5;entryY=1;entryDx=0;entryDy=0;dashed=1;endArrow=open;endFill=0;curved=1;" edge="1" parent="1" source="4oAhVJ8UpYu7YmOD0aNs-71" target="4oAhVJ8UpYu7YmOD0aNs-100">
          <mxGeometry relative="1" as="geometry" />
        </mxCell>
        <mxCell id="4oAhVJ8UpYu7YmOD0aNs-123" value="&amp;lt;&amp;lt;include&amp;gt;&amp;gt;" style="edgeLabel;html=1;align=center;verticalAlign=middle;resizable=0;points=[];" connectable="0" vertex="1" parent="4oAhVJ8UpYu7YmOD0aNs-122">
          <mxGeometry x="-0.4098" y="1" relative="1" as="geometry">
            <mxPoint as="offset" />
          </mxGeometry>
        </mxCell>
        <mxCell id="4oAhVJ8UpYu7YmOD0aNs-71" value="Consulter le CPC" style="ellipse;whiteSpace=wrap;html=1;" vertex="1" parent="1">
          <mxGeometry x="160" y="819" width="120" height="40" as="geometry" />
        </mxCell>
        <mxCell id="4oAhVJ8UpYu7YmOD0aNs-75" style="rounded=0;orthogonalLoop=1;jettySize=auto;html=1;endArrow=none;startFill=0;entryX=0;entryY=0.5;entryDx=0;entryDy=0;" edge="1" parent="1" source="4oAhVJ8UpYu7YmOD0aNs-80" target="4oAhVJ8UpYu7YmOD0aNs-81">
          <mxGeometry relative="1" as="geometry" />
        </mxCell>
        <mxCell id="4oAhVJ8UpYu7YmOD0aNs-77" style="rounded=0;orthogonalLoop=1;jettySize=auto;html=1;entryX=0;entryY=0.5;entryDx=0;entryDy=0;endArrow=none;startFill=0;" edge="1" parent="1" source="4oAhVJ8UpYu7YmOD0aNs-80" target="4oAhVJ8UpYu7YmOD0aNs-83">
          <mxGeometry relative="1" as="geometry" />
        </mxCell>
        <mxCell id="4oAhVJ8UpYu7YmOD0aNs-78" style="rounded=0;orthogonalLoop=1;jettySize=auto;html=1;entryX=0;entryY=0.5;entryDx=0;entryDy=0;endArrow=none;startFill=0;" edge="1" parent="1" source="4oAhVJ8UpYu7YmOD0aNs-80" target="4oAhVJ8UpYu7YmOD0aNs-84">
          <mxGeometry relative="1" as="geometry" />
        </mxCell>
        <mxCell id="4oAhVJ8UpYu7YmOD0aNs-147" style="rounded=0;orthogonalLoop=1;jettySize=auto;html=1;endArrow=none;startFill=0;" edge="1" parent="1" source="4oAhVJ8UpYu7YmOD0aNs-80" target="4oAhVJ8UpYu7YmOD0aNs-82">
          <mxGeometry relative="1" as="geometry" />
        </mxCell>
        <mxCell id="4oAhVJ8UpYu7YmOD0aNs-80" value="Elève" style="shape=umlActor;html=1;verticalLabelPosition=bottom;verticalAlign=top;align=center;" vertex="1" parent="1">
          <mxGeometry x="40" y="949" width="30" height="60" as="geometry" />
        </mxCell>
        <mxCell id="4oAhVJ8UpYu7YmOD0aNs-112" style="edgeStyle=orthogonalEdgeStyle;rounded=0;orthogonalLoop=1;jettySize=auto;html=1;entryX=0.5;entryY=1;entryDx=0;entryDy=0;dashed=1;endArrow=open;endFill=0;curved=1;" edge="1" parent="1" source="4oAhVJ8UpYu7YmOD0aNs-81" target="4oAhVJ8UpYu7YmOD0aNs-100">
          <mxGeometry relative="1" as="geometry" />
        </mxCell>
        <mxCell id="4oAhVJ8UpYu7YmOD0aNs-114" value="&amp;lt;&amp;lt;include&amp;gt;&amp;gt;" style="edgeLabel;html=1;align=center;verticalAlign=middle;resizable=0;points=[];" connectable="0" vertex="1" parent="4oAhVJ8UpYu7YmOD0aNs-112">
          <mxGeometry x="-0.2949" relative="1" as="geometry">
            <mxPoint x="29" y="-17" as="offset" />
          </mxGeometry>
        </mxCell>
        <mxCell id="4oAhVJ8UpYu7YmOD0aNs-81" value="Consulter les traveaux à domicile" style="ellipse;whiteSpace=wrap;html=1;" vertex="1" parent="1">
          <mxGeometry x="170" y="930" width="120" height="40" as="geometry" />
        </mxCell>
        <mxCell id="4oAhVJ8UpYu7YmOD0aNs-113" style="edgeStyle=orthogonalEdgeStyle;rounded=0;orthogonalLoop=1;jettySize=auto;html=1;entryX=0.5;entryY=1;entryDx=0;entryDy=0;dashed=1;endArrow=open;endFill=0;curved=1;exitX=1;exitY=0.5;exitDx=0;exitDy=0;" edge="1" parent="1" source="4oAhVJ8UpYu7YmOD0aNs-82" target="4oAhVJ8UpYu7YmOD0aNs-100">
          <mxGeometry relative="1" as="geometry">
            <Array as="points">
              <mxPoint x="710" y="1000" />
            </Array>
          </mxGeometry>
        </mxCell>
        <mxCell id="4oAhVJ8UpYu7YmOD0aNs-115" value="&amp;lt;&amp;lt;include&amp;gt;&amp;gt;" style="edgeLabel;html=1;align=center;verticalAlign=middle;resizable=0;points=[];" connectable="0" vertex="1" parent="4oAhVJ8UpYu7YmOD0aNs-113">
          <mxGeometry x="-0.3209" y="-3" relative="1" as="geometry">
            <mxPoint x="-111" y="-3" as="offset" />
          </mxGeometry>
        </mxCell>
        <mxCell id="4oAhVJ8UpYu7YmOD0aNs-82" value="Consulter les notes" style="ellipse;whiteSpace=wrap;html=1;" vertex="1" parent="1">
          <mxGeometry x="310" y="980" width="120" height="40" as="geometry" />
        </mxCell>
        <mxCell id="4oAhVJ8UpYu7YmOD0aNs-116" style="edgeStyle=orthogonalEdgeStyle;rounded=0;orthogonalLoop=1;jettySize=auto;html=1;dashed=1;endArrow=open;endFill=0;curved=1;" edge="1" parent="1" source="4oAhVJ8UpYu7YmOD0aNs-83" target="4oAhVJ8UpYu7YmOD0aNs-100">
          <mxGeometry relative="1" as="geometry" />
        </mxCell>
        <mxCell id="4oAhVJ8UpYu7YmOD0aNs-117" value="&amp;lt;&amp;lt;include&amp;gt;&amp;gt;" style="edgeLabel;html=1;align=center;verticalAlign=middle;resizable=0;points=[];" connectable="0" vertex="1" parent="4oAhVJ8UpYu7YmOD0aNs-116">
          <mxGeometry x="-0.295" y="-1" relative="1" as="geometry">
            <mxPoint x="-187" y="-1" as="offset" />
          </mxGeometry>
        </mxCell>
        <mxCell id="4oAhVJ8UpYu7YmOD0aNs-118" style="edgeStyle=orthogonalEdgeStyle;rounded=0;orthogonalLoop=1;jettySize=auto;html=1;entryX=0.5;entryY=1;entryDx=0;entryDy=0;dashed=1;endArrow=open;endFill=0;curved=1;" edge="1" parent="1" source="4oAhVJ8UpYu7YmOD0aNs-84" target="4oAhVJ8UpYu7YmOD0aNs-100">
          <mxGeometry relative="1" as="geometry" />
        </mxCell>
        <mxCell id="4oAhVJ8UpYu7YmOD0aNs-119" value="&amp;lt;&amp;lt;include&amp;gt;&amp;gt;" style="edgeLabel;html=1;align=center;verticalAlign=middle;resizable=0;points=[];" connectable="0" vertex="1" parent="4oAhVJ8UpYu7YmOD0aNs-118">
          <mxGeometry x="-0.3812" relative="1" as="geometry">
            <mxPoint x="-124" y="-6" as="offset" />
          </mxGeometry>
        </mxCell>
        <mxCell id="4oAhVJ8UpYu7YmOD0aNs-84" value="Consulter la liste des vacances" style="ellipse;whiteSpace=wrap;html=1;" vertex="1" parent="1">
          <mxGeometry x="170" y="1059" width="120" height="40" as="geometry" />
        </mxCell>
        <mxCell id="4oAhVJ8UpYu7YmOD0aNs-110" style="edgeStyle=orthogonalEdgeStyle;rounded=0;orthogonalLoop=1;jettySize=auto;html=1;entryX=0.5;entryY=0;entryDx=0;entryDy=0;dashed=1;curved=1;" edge="1" parent="1" source="4oAhVJ8UpYu7YmOD0aNs-90" target="4oAhVJ8UpYu7YmOD0aNs-100">
          <mxGeometry relative="1" as="geometry">
            <mxPoint x="710" y="1292.095249720982" as="targetPoint" />
          </mxGeometry>
        </mxCell>
        <mxCell id="4oAhVJ8UpYu7YmOD0aNs-111" value="&amp;lt;&amp;lt;include&amp;gt;&amp;gt;" style="edgeLabel;html=1;align=center;verticalAlign=middle;resizable=0;points=[];" connectable="0" vertex="1" parent="4oAhVJ8UpYu7YmOD0aNs-110">
          <mxGeometry x="-0.2287" y="1" relative="1" as="geometry">
            <mxPoint x="-274" y="1" as="offset" />
          </mxGeometry>
        </mxCell>
        <mxCell id="4oAhVJ8UpYu7YmOD0aNs-90" value="Annoncer un offre" style="ellipse;whiteSpace=wrap;html=1;" vertex="1" parent="1">
          <mxGeometry x="160" y="309" width="120" height="40" as="geometry" />
        </mxCell>
        <mxCell id="4oAhVJ8UpYu7YmOD0aNs-99" style="rounded=0;orthogonalLoop=1;jettySize=auto;html=1;" edge="1" parent="1" source="eoRcMHZ9vkLLQFMJHu0_-5" target="4oAhVJ8UpYu7YmOD0aNs-80">
          <mxGeometry relative="1" as="geometry" />
        </mxCell>
        <mxCell id="4oAhVJ8UpYu7YmOD0aNs-100" value="s&#39;authentifier" style="ellipse;whiteSpace=wrap;html=1;" vertex="1" parent="1">
          <mxGeometry x="650" y="766" width="120" height="40" as="geometry" />
        </mxCell>
        <mxCell id="4oAhVJ8UpYu7YmOD0aNs-103" value="&lt;span&gt;&amp;lt;&amp;lt;include&amp;gt;&amp;gt;&lt;/span&gt;" style="html=1;verticalAlign=bottom;endArrow=open;dashed=1;endSize=8;rounded=0;entryX=0.5;entryY=0;entryDx=0;entryDy=0;exitX=1;exitY=0.5;exitDx=0;exitDy=0;edgeStyle=orthogonalEdgeStyle;curved=1;" edge="1" parent="1" source="4oAhVJ8UpYu7YmOD0aNs-23" target="4oAhVJ8UpYu7YmOD0aNs-100">
          <mxGeometry x="-0.6334" y="-55" relative="1" as="geometry">
            <mxPoint x="540" y="339.58000000000004" as="sourcePoint" />
            <mxPoint x="620" y="339.58000000000004" as="targetPoint" />
            <mxPoint as="offset" />
          </mxGeometry>
        </mxCell>
        <mxCell id="4oAhVJ8UpYu7YmOD0aNs-104" value="&lt;span&gt;&amp;lt;&amp;lt;include&amp;gt;&amp;gt;&lt;/span&gt;" style="html=1;verticalAlign=bottom;endArrow=open;dashed=1;endSize=8;rounded=0;exitX=1;exitY=0.5;exitDx=0;exitDy=0;edgeStyle=orthogonalEdgeStyle;entryX=0.5;entryY=0;entryDx=0;entryDy=0;curved=1;" edge="1" parent="1" source="4oAhVJ8UpYu7YmOD0aNs-3" target="4oAhVJ8UpYu7YmOD0aNs-100">
          <mxGeometry x="-0.7968" y="-10" relative="1" as="geometry">
            <mxPoint x="300" y="105" as="sourcePoint" />
            <mxPoint x="710" y="760" as="targetPoint" />
            <mxPoint x="-1" as="offset" />
          </mxGeometry>
        </mxCell>
        <mxCell id="4oAhVJ8UpYu7YmOD0aNs-105" value="&lt;span&gt;&amp;lt;&amp;lt;include&amp;gt;&amp;gt;&lt;/span&gt;" style="html=1;verticalAlign=bottom;endArrow=open;dashed=1;endSize=8;rounded=0;exitX=1;exitY=0.5;exitDx=0;exitDy=0;edgeStyle=orthogonalEdgeStyle;entryX=0.5;entryY=0;entryDx=0;entryDy=0;curved=1;" edge="1" parent="1" source="4oAhVJ8UpYu7YmOD0aNs-4" target="4oAhVJ8UpYu7YmOD0aNs-100">
          <mxGeometry x="-0.7745" y="-21" relative="1" as="geometry">
            <mxPoint x="390" y="220" as="sourcePoint" />
            <mxPoint x="710" y="760" as="targetPoint" />
            <mxPoint as="offset" />
          </mxGeometry>
        </mxCell>
        <mxCell id="4oAhVJ8UpYu7YmOD0aNs-140" value="Filtrer les élèves" style="ellipse;whiteSpace=wrap;html=1;" vertex="1" parent="1">
          <mxGeometry x="280" y="549" width="120" height="40" as="geometry" />
        </mxCell>
        <mxCell id="4oAhVJ8UpYu7YmOD0aNs-145" value="" style="rounded=0;orthogonalLoop=1;jettySize=auto;html=1;entryX=0;entryY=0.5;entryDx=0;entryDy=0;endArrow=none;startFill=0;" edge="1" parent="1" source="4oAhVJ8UpYu7YmOD0aNs-80" target="4oAhVJ8UpYu7YmOD0aNs-83">
          <mxGeometry relative="1" as="geometry">
            <mxPoint x="80" y="1065" as="sourcePoint" />
            <mxPoint x="320" y="1009" as="targetPoint" />
          </mxGeometry>
        </mxCell>
        <mxCell id="4oAhVJ8UpYu7YmOD0aNs-83" value="Consulter l&#39;emplois de temps" style="ellipse;whiteSpace=wrap;html=1;" vertex="1" parent="1">
          <mxGeometry x="170" y="1010" width="120" height="40" as="geometry" />
        </mxCell>
      </root>
    </mxGraphModel>
  </diagram>
</mxfile>
